<svg width="89" height="70" viewBox="0 0 89 70" fill="none" xmlns="http://www.w3.org/2000/svg">
<g filter="url(#filter0_dd_359696_79)">
<mask id="path-1-outside-1_359696_79" maskUnits="userSpaceOnUse" x="4" y="0" width="81" height="62" fill="black">
<rect fill="white" x="4" width="81" height="62"/>
<path d="M15.7653 28.3826L18.4107 27.0738L22.592 20.7919L23.872 20.2685L25.2374 26.6376L23.4454 26.8993L22.08 24.2819L21.056 28.3826H25.5787L30.272 29.604L32.1494 28.3826L35.3067 31.698L36.672 25.5906L38.8907 27.8591L40.256 25.9396L42.4747 25.3289L45.7174 22.2752L46.2294 20.7919L48.8747 21.2282L49.9841 22.7114L48.0214 26.8993L52.8854 24.3691V23.1476L54.7627 22.7114L56.8107 24.8054L58.8587 22.2752V20.5302L62.1867 18.1745L63.5521 16.1678H65.6854L69.4401 8.40268L72.6828 5L73.8774 6.91946L72.0001 9.36242L72.6828 10.9329L74.4748 11.2819L75.9254 17.7383V23.1476L78.4854 26.7248L79.7654 31.698L75.3281 28.8188L73.3654 20.5302L72.1707 20.7919L72.0001 26.3758L68.7574 31.698L67.8187 39.8121L70.0374 40.3356L70.9761 39.2013L73.1094 41.6443L74.7307 48.9732L74.5601 53.6846H72.5121L71.7441 47.0537L70.2934 49.0604L67.1361 48.3624L64.5761 46.1812L61.6747 47.2282L61.8454 51.9396L59.5414 52.5503L56.1281 55.1678L52.0321 54.6443L50.4107 53.6846L47.8507 54.1208L48.7041 55.1678L46.6561 56.3893L45.0347 55.604L41.9627 57L37.2694 54.6443L35.4774 50.4564L33.9414 50.6309L32.1494 49.1477L32.064 48.0134L26.3467 47.4027L25.408 50.5436L21.824 48.8859L20.032 45.8322H16.192L15.7653 50.7181L13.5467 51.4161L12.4373 55.8658L11.584 55.0805L8 45.745L12.2667 43.651L11.584 39.5503L10.9013 35.3624L12.7787 32.6577L12.1813 31L14.7413 28.2081L15.7653 28.3826ZM72.5121 38.6779L76.4374 44.6107L77.7174 44.0872L76.0961 41.6443L72.5121 37.8054V38.6779ZM32.4054 26.6376V24.8926L35.392 22.7114L37.952 21.4027H34.9654L32.32 22.9732L30.6987 24.4564V26.6376H32.4054Z"/>
</mask>
<path d="M15.7653 28.3826L18.4107 27.0738L22.592 20.7919L23.872 20.2685L25.2374 26.6376L23.4454 26.8993L22.08 24.2819L21.056 28.3826H25.5787L30.272 29.604L32.1494 28.3826L35.3067 31.698L36.672 25.5906L38.8907 27.8591L40.256 25.9396L42.4747 25.3289L45.7174 22.2752L46.2294 20.7919L48.8747 21.2282L49.9841 22.7114L48.0214 26.8993L52.8854 24.3691V23.1476L54.7627 22.7114L56.8107 24.8054L58.8587 22.2752V20.5302L62.1867 18.1745L63.5521 16.1678H65.6854L69.4401 8.40268L72.6828 5L73.8774 6.91946L72.0001 9.36242L72.6828 10.9329L74.4748 11.2819L75.9254 17.7383V23.1476L78.4854 26.7248L79.7654 31.698L75.3281 28.8188L73.3654 20.5302L72.1707 20.7919L72.0001 26.3758L68.7574 31.698L67.8187 39.8121L70.0374 40.3356L70.9761 39.2013L73.1094 41.6443L74.7307 48.9732L74.5601 53.6846H72.5121L71.7441 47.0537L70.2934 49.0604L67.1361 48.3624L64.5761 46.1812L61.6747 47.2282L61.8454 51.9396L59.5414 52.5503L56.1281 55.1678L52.0321 54.6443L50.4107 53.6846L47.8507 54.1208L48.7041 55.1678L46.6561 56.3893L45.0347 55.604L41.9627 57L37.2694 54.6443L35.4774 50.4564L33.9414 50.6309L32.1494 49.1477L32.064 48.0134L26.3467 47.4027L25.408 50.5436L21.824 48.8859L20.032 45.8322H16.192L15.7653 50.7181L13.5467 51.4161L12.4373 55.8658L11.584 55.0805L8 45.745L12.2667 43.651L11.584 39.5503L10.9013 35.3624L12.7787 32.6577L12.1813 31L14.7413 28.2081L15.7653 28.3826ZM72.5121 38.6779L76.4374 44.6107L77.7174 44.0872L76.0961 41.6443L72.5121 37.8054V38.6779ZM32.4054 26.6376V24.8926L35.392 22.7114L37.952 21.4027H34.9654L32.32 22.9732L30.6987 24.4564V26.6376H32.4054Z" fill="white"/>
<path d="M15.7653 28.3826L18.4107 27.0738L22.592 20.7919L23.872 20.2685L25.2374 26.6376L23.4454 26.8993L22.08 24.2819L21.056 28.3826H25.5787L30.272 29.604L32.1494 28.3826L35.3067 31.698L36.672 25.5906L38.8907 27.8591L40.256 25.9396L42.4747 25.3289L45.7174 22.2752L46.2294 20.7919L48.8747 21.2282L49.9841 22.7114L48.0214 26.8993L52.8854 24.3691V23.1476L54.7627 22.7114L56.8107 24.8054L58.8587 22.2752V20.5302L62.1867 18.1745L63.5521 16.1678H65.6854L69.4401 8.40268L72.6828 5L73.8774 6.91946L72.0001 9.36242L72.6828 10.9329L74.4748 11.2819L75.9254 17.7383V23.1476L78.4854 26.7248L79.7654 31.698L75.3281 28.8188L73.3654 20.5302L72.1707 20.7919L72.0001 26.3758L68.7574 31.698L67.8187 39.8121L70.0374 40.3356L70.9761 39.2013L73.1094 41.6443L74.7307 48.9732L74.5601 53.6846H72.5121L71.7441 47.0537L70.2934 49.0604L67.1361 48.3624L64.5761 46.1812L61.6747 47.2282L61.8454 51.9396L59.5414 52.5503L56.1281 55.1678L52.0321 54.6443L50.4107 53.6846L47.8507 54.1208L48.7041 55.1678L46.6561 56.3893L45.0347 55.604L41.9627 57L37.2694 54.6443L35.4774 50.4564L33.9414 50.6309L32.1494 49.1477L32.064 48.0134L26.3467 47.4027L25.408 50.5436L21.824 48.8859L20.032 45.8322H16.192L15.7653 50.7181L13.5467 51.4161L12.4373 55.8658L11.584 55.0805L8 45.745L12.2667 43.651L11.584 39.5503L10.9013 35.3624L12.7787 32.6577L12.1813 31L14.7413 28.2081L15.7653 28.3826ZM72.5121 38.6779L76.4374 44.6107L77.7174 44.0872L76.0961 41.6443L72.5121 37.8054V38.6779ZM32.4054 26.6376V24.8926L35.392 22.7114L37.952 21.4027H34.9654L32.32 22.9732L30.6987 24.4564V26.6376H32.4054Z" stroke="#2A2C2F" stroke-width="6" mask="url(#path-1-outside-1_359696_79)"/>
</g>
<defs>
<filter id="filter0_dd_359696_79" x="0.216309" y="0.126465" width="88.373" height="69.3696" filterUnits="userSpaceOnUse" color-interpolation-filters="sRGB">
<feFlood flood-opacity="0" result="BackgroundImageFix"/>
<feColorMatrix in="SourceAlpha" type="matrix" values="0 0 0 0 0 0 0 0 0 0 0 0 0 0 0 0 0 0 127 0" result="hardAlpha"/>
<feOffset dy="4"/>
<feGaussianBlur stdDeviation="2"/>
<feComposite in2="hardAlpha" operator="out"/>
<feColorMatrix type="matrix" values="0 0 0 0 0 0 0 0 0 0 0 0 0 0 0 0 0 0 0.25 0"/>
<feBlend mode="normal" in2="BackgroundImageFix" result="effect1_dropShadow_359696_79"/>
<feColorMatrix in="SourceAlpha" type="matrix" values="0 0 0 0 0 0 0 0 0 0 0 0 0 0 0 0 0 0 127 0" result="hardAlpha"/>
<feOffset dy="4"/>
<feGaussianBlur stdDeviation="2"/>
<feComposite in2="hardAlpha" operator="out"/>
<feColorMatrix type="matrix" values="0 0 0 0 0 0 0 0 0 0 0 0 0 0 0 0 0 0 0.25 0"/>
<feBlend mode="normal" in2="effect1_dropShadow_359696_79" result="effect2_dropShadow_359696_79"/>
<feBlend mode="normal" in="SourceGraphic" in2="effect2_dropShadow_359696_79" result="shape"/>
</filter>
</defs>
</svg>
