<svg width="80" height="80" viewBox="0 0 80 80" fill="none" xmlns="http://www.w3.org/2000/svg">
<rect width="80" height="80" fill="#2A2C2F"/>
<path d="M11.7653 31.3826L14.4107 30.0738L18.592 23.7919L19.872 23.2685L21.2374 29.6376L19.4454 29.8993L18.08 27.2819L17.056 31.3826H21.5787L26.272 32.604L28.1494 31.3826L31.3067 34.698L32.672 28.5906L34.8907 30.8591L36.256 28.9396L38.4747 28.3289L41.7174 25.2752L42.2294 23.7919L44.8747 24.2282L45.9841 25.7114L44.0214 29.8993L48.8854 27.3691V26.1476L50.7627 25.7114L52.8107 27.8054L54.8587 25.2752V23.5302L58.1867 21.1745L59.5521 19.1678H61.6854L65.4401 11.4027L68.6828 8L69.8774 9.91946L68.0001 12.3624L68.6828 13.9329L70.4748 14.2819L71.9254 20.7383V26.1476L74.4854 29.7248L75.7654 34.698L71.3281 31.8188L69.3654 23.5302L68.1707 23.7919L68.0001 29.3758L64.7574 34.698L63.8187 42.8121L66.0374 43.3356L66.9761 42.2013L69.1094 44.6443L70.7307 51.9732L70.5601 56.6846H68.5121L67.7441 50.0537L66.2934 52.0604L63.1361 51.3624L60.5761 49.1812L57.6747 50.2282L57.8454 54.9396L55.5414 55.5503L52.1281 58.1678L48.0321 57.6443L46.4107 56.6846L43.8507 57.1208L44.7041 58.1678L42.6561 59.3893L41.0347 58.604L37.9627 60L33.2694 57.6443L31.4774 53.4564L29.9414 53.6309L28.1494 52.1477L28.064 51.0134L22.3467 50.4027L21.408 53.5436L17.824 51.8859L16.032 48.8322H12.192L11.7653 53.7181L9.54667 54.4161L8.43734 58.8658L7.584 58.0805L4 48.745L8.26667 46.651L7.584 42.5503L6.90134 38.3624L8.77867 35.6577L8.18134 34L10.7413 31.2081L11.7653 31.3826ZM68.5121 41.6779L72.4374 47.6107L73.7174 47.0872L72.0961 44.6443L68.5121 40.8054V41.6779ZM28.4054 29.6376V27.8926L31.392 25.7114L33.952 24.4027H30.9654L28.32 25.9732L26.6987 27.4564V29.6376H28.4054Z" fill="white"/>
</svg>
